<svg xmlns="http://www.w3.org/2000/svg" viewBox="0 0 71.48 70.08"><defs><style>.cls-1{fill:#fce0e0;}.cls-2,.cls-3{fill:#fff;}.cls-2{opacity:0.6;}.cls-3{stroke:#fff;stroke-width:0.96px;}</style></defs><title>Recurso 118</title><g id="Capa_2" data-name="Capa 2"><g id="Capa_2-2" data-name="Capa 2"><rect class="cls-1" width="71.48" height="70.08" rx="16.46"/><path class="cls-2" d="M52.26,23.47a7.75,7.75,0,0,1-7.75-7.77c0-.14,0-.3,0-.49v-.1c0-.22,0-.46,0-.71a2.11,2.11,0,0,0-.5-1.49,2.42,2.42,0,0,0-1.5-.57,10.78,10.78,0,0,0-1.12,0H40.9a9.81,9.81,0,0,0-1.07,0,2.34,2.34,0,0,0-1.45.57,2.17,2.17,0,0,0-.51,1.49c0,.25,0,.49,0,.71v.1c0,.19,0,.35,0,.49V43.38a7.81,7.81,0,0,1-1.31,4.32,7.77,7.77,0,0,1-8,3.31,7.78,7.78,0,0,1,1.52-15.4h1.34A2.24,2.24,0,0,0,33,35.1a2.21,2.21,0,0,0,.52-1.49c0-.25,0-.5,0-.72v-.16c0-.16,0-.31,0-.44v-.11a10.46,10.46,0,0,0,0-1.21,2.42,2.42,0,0,0-.59-1.39A2.24,2.24,0,0,0,31.46,29c-.34,0-.71,0-1,0h-.28a14.29,14.29,0,0,0-8,2.42,14.36,14.36,0,1,0,22.31,12V27.8a14.1,14.1,0,0,0,7.75,2.28l.51,0h.07c.21,0,.46,0,.7,0a2.11,2.11,0,0,0,1.48-.5,2.55,2.55,0,0,0,.59-1.47,11.76,11.76,0,0,0,0-1.27v-.23a10.46,10.46,0,0,0,0-1.21,2.52,2.52,0,0,0-.59-1.4l-.38.38.38-.38a2.41,2.41,0,0,0-1.44-.56,9.59,9.59,0,0,0-1.06,0Z"/><path class="cls-3" d="M50.53,25A6.93,6.93,0,0,1,43.59,18c0-.13,0-.27,0-.44v-.09c0-.19,0-.42,0-.64a1.87,1.87,0,0,0-.45-1.33A2.12,2.12,0,0,0,41.83,15c-.34,0-.71,0-1,0h-.47c-.28,0-.63,0-1,0a2.09,2.09,0,0,0-1.3.51,1.92,1.92,0,0,0-.45,1.33c0,.22,0,.45,0,.64v.09c0,.17,0,.31,0,.44V42.8a6.94,6.94,0,1,1-13.35-2.66,6.95,6.95,0,0,1,6.41-4.3H32a1.64,1.64,0,0,0,1.82-1.81c0-.22,0-.45,0-.65v-.14c0-.15,0-.27,0-.39v-.1a8.33,8.33,0,0,0,0-1.08,2.24,2.24,0,0,0-.53-1.25,2.08,2.08,0,0,0-1.26-.5c-.31,0-.64,0-.91,0h-.25a12.87,12.87,0,0,0-9.08,22A12.83,12.83,0,0,0,41.43,50a12.89,12.89,0,0,0,2.16-7.15V28.85a12.63,12.63,0,0,0,6.94,2l.46,0h.06l.62,0A1.92,1.92,0,0,0,53,30.49a2.26,2.26,0,0,0,.52-1.32,9.41,9.41,0,0,0,0-1.14v-.2a8.33,8.33,0,0,0,0-1.08A2.1,2.1,0,0,0,53,25.5l-.34.33L53,25.5A2.06,2.06,0,0,0,51.71,25c-.32,0-.67,0-1,0Z"/></g></g></svg>