<?xml version="1.0" ?><!DOCTYPE svg  PUBLIC '-//W3C//DTD SVG 1.1//EN'  'http://www.w3.org/Graphics/SVG/1.1/DTD/svg11.dtd'><svg height="100%" style="fill-rule:evenodd;clip-rule:evenodd;stroke-linejoin:round;stroke-miterlimit:2;" version="1.1" viewBox="0 0 64 64" width="100%" xml:space="preserve" xmlns="http://www.w3.org/2000/svg" xmlns:serif="http://www.serif.com/" xmlns:xlink="http://www.w3.org/1999/xlink"><g transform="matrix(1,0,0,1,0,-80)"><g id="tiktok-apps-platform" transform="matrix(1,0,0,1,0,80)"><rect height="64" style="fill:none;" width="64" x="0" y="0"/><g transform="matrix(1,0,0,1,-2,-82)"><path d="M37,86L45,86C45.046,86 45.092,86.003 45.136,86.009C45.62,86.049 46.01,86.436 46.046,86.928C46.58,92.482 51.718,99.243 57.101,99.93C57.611,99.982 58,100.412 58,100.925C58,102.797 58,107.022 57.996,108.975C57.996,109.247 57.884,109.508 57.687,109.695C57.49,109.883 57.225,109.982 56.953,109.97C52.945,109.736 49.191,108.176 46,105.751L46,123C46,132.383 38.383,140 29,140C19.617,140 12,132.383 12,123C12,113.617 19.617,106 29,106C29,106 29,106 29,106C29.552,106 30,106.448 30,107C30,108.887 30,113.036 30,115C29.999,115.552 29.552,115.999 29,115.999C29,116 29,116 29,116C25.137,116 22,119.137 22,123C22,126.863 25.137,130 29,130C32.863,130 36,126.863 36,123C36,123 36,92.909 36,87C36,86.448 36.448,86 37,86Z" style="fill:rgb(170,225,249);"/></g><g transform="matrix(1,0,0,1,0,-80)"><path d="M37,86L45,86C45.046,86 45.092,86.003 45.136,86.009C45.62,86.049 46.01,86.436 46.046,86.928C46.58,92.482 51.718,99.243 57.101,99.93C57.611,99.982 58,100.412 58,100.925C58,102.797 58,107.022 57.996,108.975C57.996,109.247 57.884,109.508 57.687,109.695C57.49,109.883 57.225,109.982 56.953,109.97C52.945,109.736 49.191,108.176 46,105.751L46,123C46,132.383 38.383,140 29,140C19.617,140 12,132.383 12,123C12,113.617 19.617,106 29,106C29,106 29,106 29,106C29.552,106 30,106.448 30,107C30,108.887 30,113.036 30,115C29.999,115.552 29.552,115.999 29,115.999C29,116 29,116 29,116C25.137,116 22,119.137 22,123C22,126.863 25.137,130 29,130C32.863,130 36,126.863 36,123C36,123 36,92.909 36,87C36,86.448 36.448,86 37,86Z" style="fill:rgb(221,99,110);"/></g><g transform="matrix(1,0,0,1,0,-80)"><path d="M44.202,86C44.864,89.41 47.086,93.089 49.924,95.458C51.643,97.493 53.774,99.086 56,99.706C56,101.793 55.999,105.26 55.996,106.975C55.996,107.247 55.884,107.508 55.687,107.695C55.49,107.883 55.225,107.982 54.953,107.97C50.945,107.736 47.191,106.176 44,103.751L44,121C44,130.383 36.383,138 27,138C22.817,138 18.985,136.486 16.023,133.977C13.514,131.015 12,127.183 12,123C12,113.953 19.082,106.548 28,106.029L28,113C27.999,113.552 27.552,113.999 27,113.999C27,114 27,114 27,114C23.137,114 20,117.137 20,121C20,123.443 21.254,125.595 23.153,126.847C24.405,128.746 26.557,130 29,130C32.863,130 36,126.863 36,123C36,123 36,92.909 36,87C36,86.448 36.448,86 37,86L44.202,86Z" style="fill:rgb(249,246,249);"/></g></g></g></svg>