<?xml version="1.0" ?><!DOCTYPE svg  PUBLIC '-//W3C//DTD SVG 1.1//EN'  'http://www.w3.org/Graphics/SVG/1.1/DTD/svg11.dtd'><svg enable-background="new 0 0 32 32" height="32px" version="1.1" viewBox="0 0 32 32" width="32px" xml:space="preserve" xmlns="http://www.w3.org/2000/svg" xmlns:xlink="http://www.w3.org/1999/xlink"><g id="pinterest"/><g id="youtube"><g><path clip-rule="evenodd" d="M6.348,6.404C6.229,6.377,6.118,6.406,6.006,6.433l0,0    C5.685,6.508,5.371,6.606,5.063,6.725l0,0c-0.333,0.128-0.646,0.29-0.927,0.51l0,0C3.659,7.606,3.316,8.08,3.058,8.617l0,0    C2.967,8.805,2.886,8.996,2.804,9.188c-0.31,0.72-0.488,1.474-0.562,2.251l0,0c-0.053,0.554-0.057,1.111-0.076,1.668    c-0.036,1.005-0.045,2.012-0.075,3.016c-0.007,0.236-0.018,0.474-0.027,0.711c-0.02,0.462-0.049,0.925-0.058,1.388    C1.993,18.826,2,19.428,2.042,20.032l0,0c0.046,0.652,0.144,1.295,0.277,1.934l0,0c0.155,0.735,0.5,1.386,0.995,1.956l0,0    c0.328,0.378,0.693,0.713,1.107,0.998l0,0c0.392,0.269,0.836,0.419,1.278,0.571c0.63,0.217,1.289,0.287,1.949,0.342l0,0    c0.584,0.049,1.17,0.065,1.754,0.118v0.002c0.568,0.049,1.141,0.058,1.709,0.106c0.66,0.056,1.322,0.071,1.983,0.093l0,0    c0.938,0.03,1.878,0.056,2.836,0.05l0.002-0.001c0.25-0.004,0.518,0.02,0.786,0.022l0,0c0.408,0.006,0.817,0.008,1.227,0.015    c0.449,0.008,0.899,0.019,1.35-0.007c0.542-0.027,1.082-0.031,1.622-0.073l0,0c0.381-0.032,0.763-0.067,1.141-0.098l0,0    c0.415-0.034,0.828-0.058,1.24-0.11l0,0c0.333-0.044,0.665-0.092,0.998-0.14c0.409-0.057,0.819-0.103,1.229-0.171l0,0    c0.56-0.096,1.111-0.232,1.666-0.348c0.243-0.052,0.483-0.106,0.703-0.229c0.09-0.048,0.18-0.094,0.272-0.141l0,0    c0.315-0.158,0.591-0.37,0.826-0.634l0,0c0.279-0.313,0.46-0.681,0.621-1.06l0,0c0.15-0.344,0.249-0.702,0.279-1.078    c0.022-0.322,0.039-0.647,0.064-0.972c0.033-0.429,0.013-0.858,0.036-1.285c0.021-0.374-0.017-0.746-0.012-1.119l0,0    c0.011-1.114-0.002-2.227-0.021-3.341c-0.015-0.736-0.019-1.472-0.067-2.207l0,0c-0.03-0.423-0.023-0.848-0.05-1.271l0,0    c-0.042-0.645-0.036-1.292-0.142-1.933l0,0c-0.06-0.364-0.094-0.732-0.215-1.086l0,0c-0.003-0.007-0.007-0.02-0.008-0.023    c0.011-0.149-0.049-0.277-0.125-0.4l0,0c-0.172-0.275-0.37-0.531-0.586-0.776c-0.101-0.114-0.217-0.213-0.333-0.31l0,0    c-0.339-0.283-0.733-0.465-1.136-0.636l0,0c-0.462-0.199-0.952-0.309-1.44-0.417l0,0c-0.583-0.128-1.174-0.23-1.771-0.286    c-0.451-0.043-0.9-0.104-1.353-0.127l0,0c-0.663-0.033-1.326-0.086-1.989-0.113l0,0c-0.872-0.036-1.745-0.053-2.617-0.067    c-0.79-0.013-1.583-0.027-2.373-0.027l0,0c-0.776-0.001-1.552-0.002-2.328,0.004c-0.6,0.005-1.195,0.055-1.795,0.071    c-0.158,0.004-0.319,0.014-0.479,0.024l0,0c-0.477,0.031-0.952,0.081-1.429,0.106C9.442,5.976,9.158,6.002,8.876,6.039l0,0    C8.494,6.092,8.112,6.14,7.729,6.188C7.282,6.245,6.835,6.298,6.394,6.393l0,0C6.381,6.396,6.356,6.401,6.348,6.404L6.348,6.404z     M15.507,25.595h0.003c0.346,0.009,0.691,0.013,1.038,0.02c1.031,0.02,2.063,0.057,3.093,0.003    c0.418-0.022,0.837-0.024,1.257-0.063c0.278-0.023,0.561-0.051,0.841-0.073c0.33-0.027,0.662-0.044,0.991-0.075    c0.778-0.073,1.549-0.206,2.324-0.302c0.475-0.061,0.94-0.164,1.407-0.27l0,0c0.287-0.063,0.58-0.11,0.863-0.203    c0.275-0.092,0.539-0.21,0.783-0.369l0,0c0.342-0.222,0.595-0.522,0.774-0.886l0,0c0.063-0.133,0.127-0.265,0.185-0.4    c0.125-0.288,0.207-0.589,0.231-0.902c0.048-0.65,0.076-1.301,0.093-1.953c0.016-0.606-0.008-1.214-0.007-1.82l0,0    c0.002-0.703-0.001-1.406-0.012-2.108l0,0c-0.009-0.712-0.026-1.422-0.04-2.133c-0.003-0.159-0.006-0.319-0.014-0.479    c-0.035-0.803-0.072-1.604-0.107-2.406l0,0c-0.006-0.125-0.009-0.25-0.018-0.375l0,0c-0.022-0.299-0.07-0.596-0.107-0.894l0,0    c-0.047-0.359-0.115-0.713-0.246-1.052c0,0,0,0,0-0.001c-0.009-0.024-0.017-0.05-0.025-0.074    c-0.007-0.019-0.013-0.038-0.029-0.053c-0.008-0.007-0.014-0.015-0.019-0.023c-0.18-0.278-0.379-0.54-0.629-0.762    c-0.291-0.259-0.64-0.421-0.99-0.58l0,0c-0.296-0.132-0.61-0.201-0.918-0.289l0,0c-0.63-0.179-1.275-0.28-1.923-0.366    c-0.821-0.107-1.645-0.155-2.472-0.211l0,0c-0.515-0.034-1.031-0.042-1.548-0.072l0,0c-0.562-0.032-1.122-0.027-1.684-0.039    c-1.188-0.024-2.376-0.036-3.563-0.04l0,0c-0.893-0.002-1.785,0.009-2.678,0.047c-0.821,0.037-1.639,0.1-2.458,0.153    C9.43,6.574,8.959,6.628,8.487,6.693l0,0C7.825,6.787,7.158,6.851,6.5,6.972l0,0C6.144,7.037,5.785,7.09,5.443,7.221    C5.116,7.347,4.796,7.483,4.518,7.702C4.13,8.006,3.85,8.393,3.632,8.826c0,0,0,0-0.001,0c-0.129,0.258-0.237,0.522-0.343,0.79    c-0.221,0.56-0.362,1.14-0.427,1.735l0,0c-0.039,0.361-0.051,0.727-0.064,1.09l0,0c-0.023,0.654-0.035,1.308-0.06,1.961    c-0.015,0.395-0.007,0.787-0.02,1.181l0,0c-0.023,0.75-0.052,1.5-0.083,2.248c-0.026,0.638-0.048,1.274,0.003,1.911l0,0    c0.021,0.267,0.034,0.533,0.062,0.8c0.033,0.328,0.103,0.651,0.151,0.979c0.063,0.422,0.191,0.825,0.382,1.206l0,0    c0.255,0.508,0.618,0.932,1.038,1.311l0,0c0.294,0.266,0.611,0.496,0.981,0.646l0,0c0.227,0.092,0.454,0.181,0.677,0.281    c0.045,0.02,0.091,0.032,0.14,0.043l0,0c0.521,0.105,1.049,0.173,1.578,0.22c0.572,0.052,1.148,0.061,1.721,0.118l0,0    c0.473,0.048,0.947,0.046,1.419,0.087c0.829,0.073,1.662,0.087,2.492,0.125c0.52,0.024,1.042,0.011,1.562,0.036l0,0    c0.219,0.009,0.439,0.014,0.659,0.002H15.507L15.507,25.595z" fill="#060506" fill-rule="evenodd"/><path clip-rule="evenodd" d="M23.543,24.939c-0.698,0.664-11.86,1.166-12.762,0.727    c-0.426-0.208-0.947-0.038-1.421-0.087c-0.572-0.058-1.147-0.065-1.719-0.117c-0.535-0.047-1.22-0.139-1.746-0.247    c-0.057-0.01-0.112-0.028-0.164-0.052c-0.222-0.1-0.533-0.251-0.759-0.342c-0.384-0.155-0.632-0.445-0.937-0.718    c-0.431-0.391-0.804-0.826-1.065-1.347c-0.197-0.393-0.327-0.808-0.393-1.242c-0.02-0.13-0.184-1.601-0.217-3.506    c-0.053-2.913,0.208-6.74,0.474-7.758C3.247,8.675,4.321,7.533,4.71,7.343c1.435-0.697,3.819-0.997,4.792-1.096    c2.244-0.228,5.024-0.216,5.558-0.215c1.188,0.004,2.377,0.017,3.564,0.041c0.563,0.012,1.127,0.007,1.689,0.04    c0.516,0.029,1.034,0.036,1.55,0.071c0.826,0.056,1.656,0.104,2.478,0.212c0.368,0.049,1.465,0.232,2.403,0.542    c0.729,0.24,1.344,0.796,1.475,0.913c0.084,0.075,0.794,0.041,0.965,0.91c0.347,1.763,0.186,5.23,0.103,6.785    c-0.167,3.135-0.967,6.717-1.121,6.963c-0.162,0.263-0.351,0.509-0.575,0.725c-0.079,0.076-0.169,0.145-0.245,0.226    c-0.041,0.042-0.084,0.076-0.134,0.106c-0.308,0.19-0.631,0.351-0.965,0.49c-0.355,0.147-0.718,0.271-1.083,0.391    C24.626,24.622,24.093,24.801,23.543,24.939L23.543,24.939z" fill="#FFC3DE" fill-rule="evenodd"/><path clip-rule="evenodd" d="M15.505,25.713c0.104-0.041,0.216-0.047,0.324-0.063    c0.144-0.025,0.286-0.052,0.432-0.063c0.157-0.013,0.31-0.045,0.468-0.056c0.171-0.012,0.342-0.043,0.512-0.063    c0.08-0.01,0.161-0.014,0.241-0.024c0.251-0.029,0.503-0.046,0.754-0.073c0.24-0.027,0.479-0.068,0.718-0.085    c0.181-0.014,0.357-0.041,0.537-0.055c0.16-0.011,0.319-0.04,0.479-0.06c0.084-0.009,0.169-0.019,0.252-0.025    c0.336-0.035,0.668-0.087,0.998-0.156c0.61-0.13,1.22-0.267,1.825-0.419c0.549-0.135,1.084-0.317,1.62-0.49    c0.366-0.12,0.73-0.243,1.085-0.392c0.333-0.138,0.656-0.3,0.964-0.49c0.048-0.03,0.096-0.065,0.134-0.106    c0.078-0.08,0.166-0.148,0.245-0.225c0.224-0.216,0.413-0.462,0.577-0.726c0.265-0.429,0.466-0.886,0.634-1.357    c0.109-0.305,0.184-0.621,0.258-0.937c0.056-0.235,0.104-0.475,0.149-0.713c0.034-0.171,0.059-0.345,0.085-0.517    c0.022-0.143,0.045-0.285,0.065-0.428c0.009-0.079,0.019-0.159,0.021-0.238c0.007-0.125,0.02-0.25,0.034-0.375    c0.016-0.136-0.003-0.274,0.036-0.407c0.004-0.011,0.003-0.023,0.003-0.035c0.021-0.301,0.029-0.602,0.026-0.903    c-0.003-0.26-0.002-0.52-0.002-0.779c0-0.195-0.023-0.388-0.029-0.581c-0.006-0.197-0.022-0.396-0.045-0.592    c-0.022-0.188-0.03-0.375-0.013-0.56c0.018-0.182-0.004-0.365,0.038-0.546c0.006-0.028,0.003-0.061,0.003-0.091    c0-0.748,0.008-1.499-0.006-2.248c-0.006-0.271-0.002-0.542-0.022-0.812c-0.013-0.167-0.001-0.336-0.021-0.501    c-0.022-0.177-0.014-0.351-0.022-0.526C28.86,8.918,28.834,8.841,28.84,8.76c0.003-0.043,0.005-0.084,0.028-0.121    c0.05,0.046,0.063,0.112,0.084,0.172c0.135,0.349,0.207,0.712,0.253,1.08c0.038,0.301,0.088,0.599,0.109,0.899    c0.009,0.126,0.012,0.252,0.017,0.379c0.035,0.801,0.072,1.604,0.107,2.406c0.007,0.159,0.012,0.32,0.015,0.48    c0.013,0.712,0.031,1.422,0.04,2.134c0.011,0.703,0.014,1.406,0.011,2.11c0,0.608,0.023,1.215,0.008,1.824    c-0.016,0.653-0.046,1.307-0.094,1.958c-0.024,0.326-0.111,0.641-0.238,0.941c-0.061,0.137-0.125,0.271-0.19,0.405    c-0.188,0.382-0.455,0.698-0.816,0.934c-0.252,0.165-0.526,0.286-0.812,0.381c-0.286,0.095-0.582,0.142-0.873,0.207    c-0.47,0.106-0.94,0.211-1.419,0.271c-0.775,0.099-1.549,0.23-2.328,0.304c-0.33,0.03-0.661,0.049-0.992,0.076    c-0.282,0.022-0.563,0.048-0.842,0.073c-0.419,0.039-0.841,0.039-1.26,0.063c-1.034,0.055-2.068,0.017-3.102-0.003    C16.199,25.728,15.853,25.724,15.505,25.713" fill="#FDA2D3" fill-rule="evenodd"/><path clip-rule="evenodd" d="M14.533,19.217c0.369,0.071,0.7-0.046,1.02-0.211    c0.36-0.184,0.697-0.406,1.031-0.633c0.742-0.504,1.469-1.027,2.155-1.601c0.2-0.168,0.395-0.344,0.564-0.543    c0.179-0.204,0.311-0.436,0.407-0.688c0.111-0.298,0.078-0.577-0.087-0.846c-0.134-0.222-0.313-0.408-0.514-0.57    c-0.405-0.328-0.837-0.623-1.28-0.9c-0.51-0.318-1.024-0.627-1.555-0.906c-0.024-0.013-0.051-0.021-0.067-0.044    c0.04-0.011,0.077,0.002,0.111,0.02c0.215,0.103,0.433,0.201,0.646,0.311c0.425,0.22,0.849,0.446,1.253,0.701    c0.429,0.27,0.848,0.553,1.255,0.853c0.086,0.063,0.16,0.144,0.232,0.223c0.112,0.125,0.214,0.259,0.281,0.416    c0.082,0.184,0.127,0.376,0.123,0.575c-0.004,0.177-0.062,0.344-0.129,0.507c-0.137,0.327-0.33,0.615-0.564,0.883    c-0.214,0.244-0.465,0.441-0.717,0.641c-0.37,0.292-0.754,0.563-1.151,0.817c-0.367,0.237-0.74,0.465-1.125,0.674    c-0.176,0.096-0.343,0.203-0.531,0.276c-0.241,0.091-0.483,0.173-0.74,0.208c-0.202,0.026-0.399,0.008-0.577-0.111    C14.556,19.254,14.54,19.24,14.533,19.217" fill="#FBA1D1" fill-rule="evenodd"/><path clip-rule="evenodd" d="M16.037,12.055c0.047,0.021,0.386,0.208,0.432,0.232    c0.486,0.261,0.957,0.544,1.425,0.837l0,0c0.447,0.28,0.883,0.578,1.293,0.909l0,0c0.213,0.171,0.399,0.367,0.541,0.602    c0.186,0.301,0.222,0.615,0.095,0.948c-0.101,0.267-0.239,0.511-0.427,0.727l0,0c-0.176,0.202-0.372,0.382-0.578,0.555l0,0    c-0.691,0.576-1.419,1.103-2.164,1.607l0,0c-0.339,0.229-0.68,0.454-1.045,0.641c-0.344,0.177-0.701,0.297-1.099,0.221    l-0.008-0.001v-0.001c-0.503-0.131-0.757-0.484-0.873-0.959l0,0c-0.042-0.174-0.062-0.349-0.064-0.525    c-0.01-0.474-0.046-0.946-0.058-1.419l0,0c-0.013-0.482,0.013-0.962,0.04-1.441c0.034-0.626,0.047-1.251,0.072-1.876    c0.012-0.282,0.046-0.561,0.097-0.836l0,0c0.11-0.59,0.622-0.811,1.079-0.728c0.233,0.042,0.45,0.126,0.661,0.227    C15.651,11.865,15.845,11.96,16.037,12.055L16.037,12.055z M14.135,15.362L14.135,15.362c-0.011,0.271-0.032,0.538-0.028,0.809    c0.009,0.581,0.047,1.16,0.065,1.74l0,0c0.006,0.193,0.047,0.38,0.125,0.556c0.067,0.152,0.184,0.242,0.348,0.277    c0.129,0.028,0.253,0.008,0.376-0.035l0,0c0.207-0.072,0.402-0.173,0.588-0.287l0,0c0.893-0.542,1.731-1.155,2.551-1.799    c0.263-0.207,0.521-0.422,0.747-0.673l0,0c0.159-0.179,0.279-0.381,0.36-0.606c0,0,0,0,0-0.001    c0.046-0.132,0.033-0.255-0.034-0.377l0,0c-0.04-0.07-0.086-0.136-0.139-0.196c-0.138-0.16-0.294-0.299-0.464-0.425    c-0.436-0.324-0.888-0.624-1.35-0.906l0,0c-0.697-0.425-1.408-0.822-2.149-1.163c-0.154-0.072-0.315-0.134-0.487-0.149l0,0    c-0.141-0.013-0.261,0.059-0.303,0.19c-0.037,0.115-0.073,0.232-0.086,0.352c-0.045,0.415-0.048,0.833-0.057,1.25l0,0    C14.187,14.399,14.144,14.88,14.135,15.362L14.135,15.362L14.135,15.362z" fill="#060506" fill-rule="evenodd"/><path clip-rule="evenodd" d="M14.015,15.358c-0.01,0.271-0.033,0.542-0.028,0.814    c0.01,0.581,0.046,1.161,0.064,1.743c0.007,0.206,0.052,0.407,0.136,0.6c0.084,0.188,0.229,0.301,0.431,0.346    c0.154,0.033,0.299,0.011,0.443-0.04c0.215-0.075,0.417-0.179,0.611-0.297c0.896-0.545,1.739-1.162,2.562-1.809    c0.27-0.211,0.532-0.431,0.762-0.686c0.171-0.191,0.299-0.406,0.384-0.647c0.06-0.167,0.044-0.322-0.041-0.475    c-0.044-0.078-0.094-0.149-0.152-0.217c-0.143-0.167-0.308-0.312-0.482-0.441c-0.438-0.328-0.894-0.629-1.361-0.913    c-0.699-0.428-1.414-0.827-2.159-1.17c-0.169-0.078-0.342-0.143-0.528-0.16c-0.199-0.019-0.368,0.086-0.429,0.273    c-0.039,0.122-0.076,0.248-0.091,0.375c-0.045,0.418-0.049,0.84-0.059,1.261C14.065,14.397,14.023,14.878,14.015,15.358     M14.533,19.217c-0.457-0.12-0.682-0.443-0.787-0.873c-0.04-0.164-0.058-0.332-0.062-0.499c-0.01-0.475-0.045-0.947-0.058-1.42    c-0.012-0.479,0.013-0.956,0.04-1.432c0.034-0.627,0.048-1.253,0.073-1.878c0.011-0.276,0.045-0.549,0.095-0.819    c0.096-0.513,0.541-0.704,0.938-0.632c0.223,0.041,0.43,0.121,0.632,0.217c0.226,0.107,0.45,0.218,0.675,0.327    c0.013,0.007,0.171,0.099,0.195,0.111c0.018,0.01,0.034,0.02,0.052,0.028c0.515,0.271,1.01,0.57,1.503,0.877    c0.443,0.278,0.875,0.573,1.28,0.901c0.201,0.162,0.38,0.349,0.514,0.57c0.165,0.269,0.198,0.548,0.087,0.846    c-0.097,0.252-0.229,0.483-0.407,0.688c-0.171,0.199-0.364,0.375-0.564,0.543c-0.687,0.573-1.414,1.097-2.155,1.601    c-0.334,0.227-0.671,0.449-1.031,0.633C15.233,19.171,14.902,19.288,14.533,19.217" fill="#060506" fill-rule="evenodd"/><path clip-rule="evenodd" d="M5.1,9.127C4.9,9.128,4.775,8.977,4.814,8.781    c0.022-0.108,0.06-0.215,0.119-0.309c0.204-0.323,0.455-0.604,0.785-0.809c0.227-0.14,0.47-0.252,0.733-0.297    C6.735,7.32,7.009,7.363,7.227,7.568C7.39,7.723,7.419,7.932,7.245,8.119c-0.149,0.164-0.344,0.265-0.563,0.32    c-0.219,0.057-0.44,0.105-0.648,0.2C5.896,8.701,5.772,8.783,5.645,8.86C5.516,8.938,5.393,9.022,5.258,9.089    C5.205,9.114,5.152,9.134,5.1,9.127" fill="#FEFEFE" fill-rule="evenodd"/><path clip-rule="evenodd" d="M4.764,9.61c0.012,0.208-0.183,0.387-0.395,0.393    c-0.181,0.005-0.362-0.166-0.351-0.355c0.014-0.224,0.174-0.385,0.412-0.384C4.623,9.265,4.764,9.412,4.764,9.61" fill="#FEFEFE" fill-rule="evenodd"/><path clip-rule="evenodd" d="M14.015,15.358c0.009-0.48,0.051-0.961,0.062-1.442    c0.01-0.421,0.014-0.843,0.059-1.261c0.015-0.127,0.052-0.253,0.091-0.375c0.061-0.188,0.229-0.292,0.429-0.273    c0.187,0.018,0.359,0.082,0.528,0.16c0.745,0.343,1.46,0.742,2.159,1.17c0.468,0.284,0.923,0.585,1.361,0.913    c0.175,0.13,0.34,0.274,0.482,0.441c0.059,0.067,0.108,0.139,0.152,0.217c0.085,0.152,0.101,0.308,0.041,0.475    c-0.085,0.241-0.213,0.456-0.384,0.647c-0.229,0.255-0.492,0.475-0.762,0.686c-0.822,0.646-1.666,1.264-2.562,1.809    c-0.194,0.118-0.396,0.222-0.611,0.297c-0.145,0.051-0.289,0.073-0.443,0.04c-0.202-0.045-0.347-0.157-0.431-0.346    c-0.084-0.192-0.129-0.394-0.136-0.6c-0.019-0.582-0.055-1.162-0.064-1.743C13.981,15.9,14.005,15.63,14.015,15.358" fill="#FEFEFE" fill-rule="evenodd"/><path clip-rule="evenodd" d="M15.505,25.713c0.348,0.011,0.694,0.015,1.041,0.021    c1.033,0.02,2.067,0.058,3.102,0.003c0.419-0.024,0.841-0.024,1.26-0.063c0.279-0.025,0.56-0.051,0.842-0.073    c0.331-0.027,0.662-0.046,0.992-0.076c0.779-0.073,1.553-0.205,2.328-0.304c0.479-0.06,0.949-0.164,1.419-0.271    c0.291-0.065,0.587-0.112,0.873-0.207c0.285-0.095,0.56-0.216,0.812-0.381c0.361-0.235,0.629-0.552,0.816-0.934    c0.065-0.135,0.13-0.269,0.19-0.405c0.127-0.301,0.214-0.615,0.238-0.941c0.048-0.651,0.078-1.305,0.094-1.958    c0.016-0.609-0.008-1.216-0.008-1.824c0.003-0.704,0-1.407-0.011-2.11c-0.009-0.712-0.027-1.422-0.04-2.134    c-0.003-0.16-0.008-0.321-0.015-0.48c-0.035-0.803-0.072-1.605-0.107-2.406c-0.005-0.127-0.008-0.253-0.017-0.379    c-0.021-0.301-0.071-0.599-0.109-0.899c-0.046-0.368-0.118-0.731-0.253-1.08c-0.021-0.06-0.034-0.126-0.084-0.172    c-0.185-0.288-0.392-0.559-0.649-0.787c-0.301-0.268-0.659-0.437-1.022-0.6c-0.299-0.135-0.619-0.206-0.934-0.296    c-0.636-0.18-1.288-0.282-1.941-0.369c-0.821-0.108-1.649-0.156-2.479-0.212c-0.515-0.034-1.032-0.042-1.549-0.072    c-0.563-0.033-1.126-0.028-1.688-0.04c-1.188-0.023-2.377-0.036-3.564-0.039c-0.896-0.003-1.79,0.008-2.684,0.047    c-0.822,0.036-1.641,0.099-2.461,0.153C9.419,6.455,8.944,6.509,8.471,6.576C7.807,6.669,7.139,6.732,6.478,6.854    C6.114,6.921,5.748,6.976,5.4,7.109c-0.34,0.13-0.669,0.273-0.958,0.499C4.041,7.924,3.749,8.324,3.523,8.772    c-0.131,0.261-0.241,0.53-0.348,0.8c-0.225,0.569-0.368,1.16-0.435,1.767c-0.04,0.364-0.052,0.731-0.064,1.099    c-0.023,0.653-0.035,1.308-0.06,1.961c-0.014,0.394-0.008,0.787-0.02,1.181c-0.024,0.75-0.053,1.499-0.083,2.247    c-0.027,0.643-0.049,1.284,0.003,1.926c0.021,0.267,0.034,0.534,0.062,0.801c0.033,0.331,0.104,0.656,0.152,0.985    c0.065,0.435,0.195,0.849,0.393,1.242c0.262,0.521,0.634,0.956,1.065,1.345c0.305,0.274,0.634,0.514,1.018,0.669    c0.225,0.091,0.451,0.179,0.672,0.277c0.053,0.024,0.107,0.04,0.165,0.052c0.525,0.108,1.058,0.176,1.593,0.223    c0.571,0.053,1.146,0.062,1.719,0.118c0.474,0.048,0.947,0.045,1.421,0.087c0.83,0.072,1.664,0.086,2.496,0.126    c0.521,0.023,1.042,0.011,1.562,0.034C15.058,25.722,15.281,25.725,15.505,25.713 M15.931,26.083    c-0.956,0.007-1.895-0.021-2.831-0.051c-0.659-0.021-1.319-0.036-1.977-0.092c-0.569-0.05-1.141-0.058-1.709-0.107    c-0.584-0.053-1.171-0.069-1.755-0.119c-0.649-0.054-1.3-0.121-1.92-0.335c-0.431-0.149-0.866-0.295-1.248-0.558    c-0.406-0.278-0.764-0.605-1.085-0.977c-0.481-0.556-0.818-1.188-0.969-1.903c-0.133-0.633-0.229-1.271-0.275-1.917    c-0.041-0.601-0.048-1.2-0.036-1.8c0.01-0.462,0.039-0.923,0.058-1.387c0.01-0.236,0.021-0.474,0.027-0.711    c0.031-1.004,0.039-2.01,0.075-3.016c0.021-0.554,0.023-1.109,0.076-1.661c0.072-0.765,0.247-1.507,0.553-2.216    c0.081-0.189,0.161-0.38,0.251-0.566c0.251-0.52,0.583-0.979,1.045-1.339C4.483,7.116,4.785,6.96,5.107,6.836    c0.302-0.115,0.61-0.213,0.926-0.287C6.131,6.526,6.227,6.497,6.33,6.522C6.356,6.529,6.39,6.516,6.42,6.51    c0.438-0.095,0.882-0.147,1.326-0.203C8.128,6.259,8.511,6.21,8.892,6.158c0.28-0.037,0.561-0.063,0.841-0.078    c0.479-0.026,0.954-0.076,1.431-0.107c0.158-0.011,0.317-0.021,0.475-0.024c0.599-0.017,1.193-0.066,1.792-0.07    c0.776-0.006,1.552-0.005,2.327-0.005c0.79,0.001,1.58,0.015,2.371,0.027c0.871,0.015,1.743,0.032,2.614,0.067    c0.663,0.027,1.324,0.081,1.988,0.113c0.45,0.022,0.899,0.084,1.347,0.127c0.592,0.055,1.179,0.155,1.757,0.284    c0.48,0.106,0.964,0.214,1.419,0.409c0.389,0.167,0.774,0.342,1.105,0.617c0.11,0.094,0.223,0.188,0.319,0.297    c0.21,0.24,0.405,0.492,0.573,0.762c0.064,0.102,0.118,0.206,0.109,0.332c-0.002,0.022,0.006,0.046,0.012,0.067    c0.119,0.346,0.152,0.708,0.212,1.066c0.104,0.637,0.099,1.28,0.138,1.92c0.028,0.424,0.021,0.85,0.051,1.273    c0.049,0.732,0.054,1.466,0.067,2.2c0.021,1.113,0.032,2.225,0.021,3.338c-0.004,0.371,0.036,0.74,0.014,1.112    c-0.024,0.429-0.002,0.857-0.035,1.283c-0.026,0.324-0.043,0.648-0.066,0.974c-0.027,0.361-0.124,0.706-0.269,1.039    c-0.158,0.366-0.331,0.724-0.6,1.027c-0.227,0.251-0.489,0.454-0.792,0.606c-0.093,0.047-0.185,0.093-0.276,0.143    c-0.21,0.115-0.438,0.167-0.669,0.216c-0.554,0.114-1.103,0.252-1.662,0.347c-0.407,0.068-0.817,0.113-1.225,0.172    c-0.333,0.047-0.664,0.094-0.997,0.138c-0.409,0.054-0.822,0.076-1.234,0.109c-0.379,0.032-0.761,0.067-1.14,0.098    c-0.54,0.044-1.08,0.047-1.619,0.074c-0.447,0.023-0.895,0.016-1.342,0.007c-0.409-0.008-0.818-0.008-1.227-0.014    C16.451,26.101,16.183,26.077,15.931,26.083" fill="#060506" fill-rule="evenodd"/></g></g><g id="whatsapp"/><g id="instagram"/><g id="tiktok"/><g id="rss"/><g id="twitter"/><g id="facebook"/><g id="inbox"/><g id="discord"/></svg>